# xmcd
#
# Track frame offsets: 
#        150
#        26639
#        47578
#        66802
#        86168
#
# Disc length: 1463 seconds
#
# Revision: 4
# Processed by: cddbd v1.5.2PL0 Copyright (c) Steve Scherf et al.
# Submitted via: ExactAudioCopyFreeDBPlugin 1.0
#
DISCID=3b05b505
DTITLE=Kendrick Lamar - good kid, m.A.A.d city (Deluxe Edition) [CD
DTITLE=2)
DYEAR=2012
DGENRE=Rap
TTITLE0=The Recipe Feat. Dr. Dre
TTITLE1=Black Boy Fly
TTITLE2=Now or Never Feat. Mary J. Blige
TTITLE3=County Building Blues
TTITLE4=Swimming Pools (Black Hippy Remix)
EXTD=
EXTT0=
EXTT1=
EXTT2=
EXTT3=
EXTT4=
PLAYORDER=
